<?xml version="1.0" encoding="UTF-8"?>
<svg enable-background="new 0 0 503.607 503.607" version="1.1" viewBox="0 0 503.61 503.61" xml:space="preserve" xmlns="http://www.w3.org/2000/svg">
	<g transform="translate(1 1)">
		<path d="m250.8 7.393v276.98h209.84c18.466 0 33.574 22.662 33.574 50.361v-327.34h-243.41z" fill="#54C9FD"/>
		<path d="m494.21 317.95-25.18-25.18v-285.38h25.18v310.56z" fill="#33A9F8"/>
		<path d="m217.23 385.1c-18.466 0-33.574-22.662-33.574-50.361 0-27.698 15.108-50.361 33.574-50.361h33.574v-276.98h-243.41v486.82h243.41v-109.12h-33.574z" fill="#FFDD09"/>
		<path d="M7.393,494.213h25.18V7.393H7.393V494.213z" fill="#fff"/>
		<path d="m494.21 334.74c0 27.698-15.108 50.361-33.574 50.361s-33.574-22.662-33.574-50.361c0-27.698 15.108-50.361 33.574-50.361s33.574 22.662 33.574 50.361" fill="#33A9F8"/>
		<path d="m427.07 334.74c0-27.698 15.108-50.361 33.574-50.361h-243.41c-18.466 0-33.574 22.662-33.574 50.361 0 27.698 15.108 50.361 33.574 50.361h243.41c-18.466-1e-3 -33.574-22.663-33.574-50.361" fill="#54C9FD"/>
		<path d="m460.64 393.49c-23.502 0-41.967-26.02-41.967-58.754s18.466-58.754 41.967-58.754c23.502 0 41.967 26.02 41.967 58.754s-18.465 58.754-41.967 58.754zm0-100.72c-13.429 0-25.18 19.305-25.18 41.967s11.751 41.967 25.18 41.967c13.43 0 25.18-19.305 25.18-41.967 1e-3 -22.662-11.75-41.967-25.18-41.967z"/>
		<path d="m460.64 393.49h-243.41c-23.502 0-41.967-26.02-41.967-58.754s18.466-58.754 41.967-58.754h243.41c5.036 0 8.393 3.357 8.393 8.393s-3.357 8.393-8.393 8.393c-13.429 0-25.18 19.305-25.18 41.967s11.751 41.967 25.18 41.967c5.036 0 8.393 3.357 8.393 8.393 1e-3 5.037-3.357 8.395-8.393 8.395zm-243.41-100.72c-13.43 0-25.18 19.305-25.18 41.967s11.751 41.967 25.18 41.967h214.03c-7.554-10.911-12.59-25.18-12.59-41.967s5.036-31.056 12.59-41.967h-214.03z"/>
		<path d="m494.21 343.13c-5.036 0-8.393-3.357-8.393-8.393 0-22.662-11.751-41.967-25.18-41.967h-209.84c-5.036 0-8.393-3.357-8.393-8.393v-276.98c0-5.036 3.357-8.393 8.393-8.393h243.41c5.036 0 8.393 3.357 8.393 8.393v327.34c1e-3 5.037-3.357 8.394-8.393 8.394zm-235.02-67.147h201.44c9.233 0 18.466 4.197 25.18 11.751v-271.95h-226.62v260.2z"/>
		<path d="m250.8 502.61h-243.41c-5.036 0-8.393-3.357-8.393-8.393v-486.82c0-5.036 3.357-8.393 8.393-8.393h243.41c5.036 0 8.393 3.357 8.393 8.393v276.98c0 5.036-3.357 8.393-8.393 8.393h-33.574c-13.43 0-25.18 19.305-25.18 41.967s11.751 41.967 25.18 41.967h33.574c5.036 0 8.393 3.357 8.393 8.393v109.12c1e-3 5.037-3.357 8.395-8.393 8.395zm-235.02-16.787h226.62v-92.328h-25.18c-23.502 0-41.967-26.02-41.967-58.754s18.466-58.754 41.967-58.754h25.18v-260.2h-226.62v470.03z"/>
	</g>
</svg>